<svg xmlns="http://www.w3.org/2000/svg" width="500" height="500"><path d="M72.43032 426.80336 0 353.60672V146.13561l73.06253-73.0678L146.12504 0h206.46684l73.70406 72.93766L500 145.87532v207.99964l-73.06781 73.06251L353.86439 500H144.86062l-72.4303-73.19664zm324.27602 2.88058c27.40723-28.03228 49.98648-51.66832 50.1761-52.52453.18962-.85621.04543-2.74938-.32041-4.20705-.61976-2.46927-4.19073.87474-52.2833 48.96039l-51.61812 51.61067H157.32606l-65.42474-65.43063-65.42474-65.43064V157.30259l13.23858-13.2092c8.25143-8.2331 13.65185-14.46138 14.33559-16.53317.87519-2.65183 1.64812-3.32397 3.82243-3.32397 2.23837 0 11.45907-8.73508 51.59729-48.87983l48.87188-48.87984h183.05124l65.93449 65.16927 65.93448 65.16925.54176 46.59246c.45047 38.74047.90509 49.59657 2.69767 64.41856 1.18575 9.80436 2.56513 19.19845 3.06529 20.87576.55675 1.86707.94333-23.55536.99693-65.5596l.08752-68.60925-67.33491-68.10154-67.33491-68.10155H154.28265L86.30629 86.30061l-67.97635 67.97067v191.44603l67.46149 67.46721 67.46148 67.46721H346.875l49.83134-50.96779zm-7.45358-12.92851c27.3061-27.30184 49.64744-49.9331 49.64744-50.29171 0-.35862-2.17668-.96274-4.83706-1.34252-2.66039-.37976-7.23732-1.43023-10.17095-2.33436-2.93364-.90412-5.50924-1.44737-5.72355-1.20721-.84833.95061-24.87733 33.61384-29.38478 39.9435-5.61033 7.87838-18.36066 18.73997-25.10633 21.38726-6.81024 2.67262-16.73377 3.98812-20.20539 2.67849-1.56243-.5894-5.47169-2.76164-8.68726-4.8272-5.09801-3.27477-5.84764-4.1704-5.8554-6.9958-.00995-3.61786 1.19627-4.67975 12.21105-10.74991 10.10428-5.56839 22.86091-17.16539 28.66958-26.06339 2.74614-4.20666 4.63632-7.96426 4.2004-8.35023-.43593-.38597-9.27018-7.02895-19.63169-14.76219-20.29083-15.14391-30.01043-23.59409-35.64155-30.98659-3.54087-4.64844-3.58743-4.67088-7.12831-3.4368-1.96028.68322-4.81942 1.26807-6.35363 1.29969-1.53422.03161-5.15548.95647-8.04724 2.05526-2.89177 1.09878-14.00921 3.67042-24.70543 5.71474-10.69621 2.04431-21.59589 4.35305-24.2215 5.13052-2.6256.77746-5.48965 1.41357-6.36456 1.41357-.8749 0-1.59514.34369-1.60052.76375-.00539.42006-1.15568 7.40835-2.55621 15.52953-3.09313 17.93594-5.21403 39.6565-6.06554 62.11813-.72085 19.01485-1.89725 25.51001-5.49924 30.36237-4.38967 5.91348-9.29959 7.68461-21.51077 7.75946-5.88086.03605-11.95265-.28688-13.49287-.71761-2.55167-.71359-2.80041-1.21247-2.80041-5.6167 0-6.23898 2.35176-10.39557 8.53046-15.07703l4.9663-3.76286-.71662-10.80172c-.39413-5.94095-1.64017-15.15508-2.76898-20.47585-1.1288-5.32078-2.42383-11.96538-2.87785-14.76579-1.42596-8.79529-7.05708-22.6615-10.97554-27.02641-1.9911-2.21796-3.89906-4.03265-4.23991-4.03265-2.13164 0-5.9051 29.41041-6.84679 53.36391-.81064 20.62037-.91079 20.87175-12.91261 32.41574-8.83224 8.4953-12.83263 10.49262-19.28269 9.62749l-4.11691-.5522 11.092 11.12651 11.092 11.12649h180.27142l49.64744-49.63968zm-182.05841 27.52566c.58119-2.31566.14343-3.22267-2.69001-5.57342-4.23241-3.5114-4.71505-3.51638-6.01999-.06205-.58186 1.54023-2.26011 4.06059-3.72947 5.60082l-2.67156 2.8004h7.20843c6.99258 0 7.22923-.08282 7.9026-2.76575zm-55.92188-5.73834c1.93252-1.87684 3.50425-4.28265 3.49273-5.34623-.01151-1.06359-2.06115-4.22503-4.55473-7.02544l-4.53379-5.09165-5.62856 5.76584c-7.23082 7.40717-7.2385 11.24224-.02775 13.84599 5.21076 1.88158 7.56539 1.43198 11.2521-2.14851zm-13.15352-13.2846c3.40827-5.63442 3.80395-7.0584 4.23323-15.2345.52714-10.04011-.9384-23.23259-4.03214-36.29656-2.10412-8.88508-4.89053-30.71809-4.90864-38.46189-.01182-5.04651-7.05483-20.12298-23.18185-49.62365-14.26971-26.10318-19.19941-37.15232-21.12674-47.35234-.89955-4.7607-1.90128-9.97831-2.22607-11.59472-.60579-3.01496-6.67063-9.56765-16.72144-18.06651l-5.57261-4.71214-3.97895 2.22754c-2.42605 1.35819-5.78569 4.8559-8.60827 8.96209-2.54613 3.70399-4.78769 6.57617-4.98124 6.38262-.19355-.19355-.78464-2.27786-1.31354-4.6318-1.07928-4.80353-.55243-5.97453 6.53128-14.51682l4.0556-4.89067-5.48594.7075c-3.01727.38914-6.54683 1.10063-7.84348 1.58111-1.29664.48047-3.58789.8342-5.09165.78606l-2.73412-.08753 2.54583-.77721c4.0316-1.2308 10.70431-4.85895 12.15819-6.61078 1.18693-1.43017.57913-1.60524-5.66894-1.63289-7.93289-.0351-7.24785-1.04934 2.10475-3.11615l6.04818-1.33658-3.50236-1.53621c-3.47323-1.52344-3.47999-1.53914-.81215-1.88847 2.45871-.32196 2.74639-.8512 3.34334-6.15066 1.39701-12.40223 4.4127-21.37746 8.79481-26.17489 1.82262-1.99537 1.79427-2.16726-1.13325-6.87073-1.65144-2.65328-3.00087-5.1692-2.99871-5.59091.00216-.42171-5.04377 4.04486-11.21318 9.92571l-11.21711 10.69247L33.53911 250l-.04267 90.63136 48.17031 47.51561 48.17032 47.5156 2.26109-2.09453c1.2436-1.15198 3.95296-4.89144 6.02079-8.30989zm219.56944-12.57368c2.20786-1.97588 2.29823-6.19908.19684-9.19923-1.9668-2.808-3.01105-2.81636-9.23236-.07397-9.39001 4.13919-11.23205 9.44305-3.94819 11.36813 3.31261.87551 11.06162-.37481 12.98371-2.09493zm18.80043-5.85805c3.93973-.79207 12.38364-8.77194 17.98388-16.99554 2.16875-3.18468 5.28149-9.60016 6.91721-14.25662 5.46432-15.55554 5.51064-13.56884-.46363-19.88255-5.09047-5.3797-5.3257-5.88017-5.81426-12.3701l-.50917-6.76357-3.90964 10.53007-3.90966 10.53006 2.29094 2.43858c1.26001 1.34123 3.93586 3.28888 5.9463 4.32811 2.86354 1.4802 3.7249 2.59169 3.97629 5.13095.28398 2.86842-.09313 3.41444-3.27687 4.74469-1.97877.82679-4.97589 1.50325-6.66026 1.50325-2.90932 0-3.01147.14007-2.04237 2.8004.56107 1.54023 1.79956 4.28972 2.7522 6.10998 1.65059 3.15389 1.63924 3.48193-.24116 6.97364-2.13913 3.97212-3.71695 5.38639-13.76487 12.3382-3.64053 2.51874-5.70265 4.33621-4.58249 4.03881 1.12017-.29742 3.50857-.83667 5.30756-1.19836zm-155.47867-18.61238c-.74796-5.29165-1.72594-7.42651-6.04698-13.20017-4.38971-5.86542-12.31551-12.85596-12.31551-10.86224 0 .34461 1.40637 2.40227 3.12528 4.57257 3.29756 4.1635 7.05802 13.50047 7.05802 17.52459 0 1.63908 1.35888 3.37595 4.3279 5.53174 2.38035 1.72836 4.42143 3.05329 4.53573 2.94429.11432-.10902-.19368-3.03886-.68444-6.51078zm-59.05764-24.38886c-.6824-3.04924-2.54274-7.45315-4.13412-9.78646-3.83295-5.61996-17.30154-18.85546-17.24261-16.9442.02544.8251 2.07805 3.5623 4.56136 6.08267 3.16405 3.21128 6.26558 8.30775 10.3651 17.03209 4.48909 9.55342 6.06413 12.06697 6.77049 10.80479.57047-1.01937.4487-3.75296-.32022-7.18889zm298.74994 2.39648 3.78717-3.18704-4.002-5.70518c-3.99056-5.68887-3.99654-5.71218-2.09103-8.14664l1.91099-2.44146 2.28002 2.5651c1.25401 1.41079 3.48754 4.10997 4.96341 5.99815l2.68339 3.43307 1.77873-2.71468c1.7016-2.59696 1.69622-2.80584-.12406-4.81722-1.86043-2.05576-1.85776-2.13602.12038-3.60778 1.11272-.82789 2.71051-1.92675 3.55063-2.44192 1.24735-.76489.70817-1.71653-2.94001-5.18893l-4.4675-4.25225-4.77899 5.00406c-7.4278 7.77765-11.36727 10.82615-18.96811 14.67821-3.86802 1.96028-7.22854 3.68355-7.46782 3.82949-.41225.25143.53846 1.18951 5.85158 5.77389l2.27841 1.96591 4.55376-4.46918c4.93776-4.84605 6.6923-3.40259 2.00793 1.65193-2.39978 2.58939-3.24801 5.48129-1.97973 6.74956 1.09937 1.09938 7.31319-1.53005 11.05285-4.67709zm-87.6933-13.64882c4.42935-4.89437 18.31376-46.08468 22.38954-66.42213.28061-1.4002 1.24732-6.21181 2.14824-10.69246 2.06344-10.26223 2.05223-10.55255-.3134-8.11835-4.77064 4.90891-13.27566 25.60154-18.82315 45.79656-1.53853 5.60081-3.62129 12.24541-4.62835 14.76578-1.00708 2.52037-2.14676 5.95723-2.53262 7.63747-.38587 1.68025-2.5596 6.20294-4.83054 10.05041-3.27921 5.55576-3.84275 7.17675-2.73827 7.87647 2.3742 1.50413 7.61271 1.00224 9.32855-.89375zm44.19333-1.47084c6.23121-3.62994 21.7148-15.90708 28.06229-22.25094 5.42128-5.41819 7.6051-10.11379 4.70369-10.11379-1.91736 0-23.33961 13.33007-30.53711 19.00181-5.53965 4.36535-12.09937 12.51879-12.09937 15.039 0 1.44706 6.36448.36633 9.8705-1.67608zm-208.0561-64.95129c.0982-46.44087-.96923-68.00345-3.92216-79.22917l-1.25819-4.78305-.69629 9.67414c-.38296 5.32077-.79415 36.05145-.91377 68.2904l-.21748 58.61629 2.54583 3.73987 2.54582 3.73987.90914-6.85717c.50002-3.77144.95321-27.70747 1.0071-53.19118zm27.70596 45.5883c.72311-1.2701 2.03446-3.86618 2.91411-5.76906.87964-1.90289 2.25217-3.96501 3.05006-4.58249.79789-.61748 3.31339-4.75477 5.59001-9.19398 4.38881-8.55778 5.0531-12.99195 2.75406-18.3834l-1.29338-3.0331-2.70165 7.61559c-1.48591 4.18856-3.33042 9.88412-4.09891 12.65679l-1.39725 5.04121-1.21208-11.15119c-1.19103-10.95753-3.25281-17.18714-6.04265-18.2577-.7711-.2959-2.62058.30495-4.10996 1.3352-5.38161 3.72268-5.6083 3.75832-4.85669.76361.68143-2.71499 1.28131-6.66908 4.26131-28.08803 2.04814-14.72118 2.84954-30.5568 1.69855-33.56334-.91024-2.37769-.99522-2.30048-1.68103 1.5275-.39728 2.21747-2.32514 10.67637-4.28413 18.79756-6.35913 26.36232-9.55676 43.78146-9.55676 52.06052 0 4.20791.73227 5.15474 6.10998 7.90021 4.80773 2.45449 9.75934 9.95611 10.61701 16.0846 1.75219 12.52023 1.77595 12.56641 4.2394 8.2395zm243.79939.95463c0-.72523-2.3305-3.81841-5.17888-6.87373-2.94492-3.15887-7.17391-9.50856-9.80384-14.72011-2.54371-5.04074-6.04254-11.1453-7.77516-13.5657l-3.15021-4.40073-1.22511 3.3824c-3.94136 10.88181 1.49082 19.91878 20.00489 33.28017 6.17596 4.4571 7.12831 4.84424 7.12831 2.8977zm-220.31664-7.3745c4.38992-2.97907 9.09125-7.96799 11.07125-11.74849 1.23026-2.34897.74095-9.17624-.76562-10.68282-.22723-.22722-2.66849 3.36051-5.42504 7.97274-6.33594 10.60124-9.80366 17.04167-9.17575 17.04167.26882 0 2.20165-1.16239 4.29516-2.5831zm-80.47639-1.7448c2.16203-2.46949 3.05897-4.331 6.25605-12.98371 2.64873-7.16865 7.36799-27.56923 7.36777-31.84963-.00026-4.7428-2.70999-18.43302-5.28567-26.70434-1.55271-4.98628-2.23859-9.88234-2.28251-16.29328-.06165-9.00099.02371-9.33111 4.77112-18.45061 4.58277-8.80327 4.83389-9.7064 4.83389-17.38479 0-8.33022-2.03505-16.63476-4.88099-19.91816-2.26934-2.61816-3.05085-2.22614-4.37539 2.19475-.96742 3.22896-.87935 5.35898.46829 11.32654 2.67662 11.85242 2.28994 14.8999-3.51909 27.73476l-5.17887 11.44252.53636 9.16497c.29499 5.04073 1.42987 11.91446 2.52194 15.27495 5.59838 17.22726 6.13382 28.85511 1.92254 41.75153-5.11154 15.65336-7.81601 26.98574-6.44014 26.98574.7033 0 2.18141-1.03106 3.2847-2.29124zm299.13212-17.05703c-3.39892-6.7213-5.92062-8.42558-9.29608-6.28272-1.00678.63913-.86068 2.00551.67888 6.34896 2.36704 6.67807 5.46014 12.69537 7.93909 15.4447 1.78264 1.97707 1.83825 1.8491 2.15517-4.95868.24061-5.16844-.144-7.91619-1.47706-10.55226zm-343.36769 8.92053c2.90841-4.06515 10.97004-20.54504 12.085-24.70464.45038-1.68025 4.76404-14.73685 9.58591-29.01467 4.82188-14.27782 9.41005-28.48352 10.19595-31.56822 7.67039-30.10683 8.41874-35.83167 6.28119-48.05118-2.19714-12.56022-4.92867-17.08685-12.95995-21.47689l-4.66737-2.55128-1.83189 3.40162-1.83189 3.40161 4.22321 5.04415c7.9014 9.43737 8.72884 12.50333 8.69541 32.22015-.01614 9.52139-.49465 19.4205-1.06333 21.99805-1.54733 7.01316-8.03272 24.42566-13.80515 37.06509-2.81367 6.1609-5.69111 13.26375-6.39429 15.78411-.70319 2.52037-3.13057 8.93585-5.39419 14.25662-4.91003 11.54134-8.75283 24.07658-7.99019 26.064.86528 2.25489 2.32091 1.69658 4.87158-1.86852zm200.10477-8.41136c9.4369-15.73071 12.26521-21.09939 13.03314-24.73945.88903-4.21407-1.14776-13.10849-3.00179-13.10849-.75325 0-1.1351.611-.84853 1.35778s-.0133 1.35777-.66635 1.35777c-.65306 0-.91088.44739-.57294.99419s-.02672 2.21787-.81035 3.71349l-1.4248 2.71932-.64456-2.56816c-.35451-1.41249-1.12576-17.74207-1.71389-36.28797-.90653-28.58603-1.37037-34.66216-3.04665-39.90937-3.05413-9.56026-7.76104-14.29407-15.69228-15.78199-3.68108-.69057-5.30887 1.00364-2.13461 2.22172 1.68129.64517 7.55207 8.49209 10.28633 13.74876 3.71549 7.14312 7.55826 22.36833 7.55826 29.94615 0 8.58592-.88724 13.91017-2.18442 13.10847-1.15962-.71668-6.94012-13.15415-8.00339-17.22029-.43937-1.68024-1.51067-5.11711-2.38066-7.63747-.86999-2.52037-2.58092-8.20684-3.80205-12.63659-2.52599-9.16319-7.16066-16.11986-13.14381-19.72896l-3.85407-2.32482 5.48256 11.23712c3.01542 6.18041 5.48258 11.6205 5.48258 12.08909 0 .46859 2.31116 6.22652 5.13592 12.7954 6.31351 14.68187 12.53487 34.91714 14.24662 46.33785 1.53217 10.2225.70317 33.18633-1.41866 39.29812-1.46394 4.21677-3.20543 12.60746-2.43058 11.71079.242-.28004 3.18903-5.09165 6.54898-10.69246zm28.97326 1.40202c5.3152-13.8948 7.13563-19.72167 8.92176-28.55688 4.55226-22.51814 5.43993-63.6861 1.65414-76.7148-2.66414-9.16852-8.6439-14.60365-19.1419-17.39848-8.58173-2.28467-9.4111-1.91093-4.86784 2.19363 4.33798 3.91909 10.58527 14.55751 14.31093 24.36982 2.87791 7.57958 3.78776 27.10213 2.15939 46.33401-1.85272 21.88147-4.03869 44.32375-4.56911 46.9088-2.16817 10.56676-1.72835 11.38864 1.53263 2.8639zm-51.74655 3.94421c2.19229-2.32516 6.6588-13.35361 10.4107-25.70549 3.08814-10.1667 3.60936-20.21044 1.17515-22.64466-1.23527-1.23527-1.72162-.67959-3.48498 3.98171-1.12715 2.97953-2.75218 7.70856-3.61119 10.50897-.85902 2.80041-2.49881 7.38289-3.64399 10.1833-1.14519 2.80041-3.07704 7.84114-4.29302 11.20163-1.21597 3.36049-2.57852 6.84684-3.02789 7.74744-.55242 1.10714-.11059 2.34392 1.36423 3.81874 2.51325 2.51326 3.44214 2.67835 5.11099.90836zm-17.7748-10.34379c2.50861-7.7947 2.43238-8.76657-1.72494-21.98819l-2.72167-8.6558-.56149 19.34827c-.30882 10.64155-.36642 19.94173-.12802 20.66707.6773 2.06066 2.56593-1.38534 5.13612-9.37135zm127.18476 5.99569c2.94715-.77122 5.79386-1.67131 6.32603-2.0002.53216-.3289 4.96317-1.17482 9.84669-1.87982 15.72512-2.27012 11.18772-3.52789-14.86363-4.12018-5.23403-.119-5.68658.07218-7.89206 3.33392-2.87374 4.25005-3.16407 7.76981-.55757 6.75935.98015-.37996 4.19338-1.32184 7.14054-2.09307zm49.82584-13.98184c2.51275-3.8824 2.92306-7.5469 1.56782-14.00204-.76432-3.64053-1.62337-7.30651-1.909-8.14664-.53261-1.56657-1.45567-.67527-8.22425 7.9414l-2.6385 3.3589 3.61196 3.76941c1.98658 2.07317 3.92178 4.80046 4.30044 6.06064.76633 2.55039 2.04411 2.9457 3.29153 1.01833zm-13.75713-16.54786c1.73569-3.36049 4.18482-7.48473 5.4425-9.16497 5.02243-6.70987 6.70328-11.49239 6.37102-18.12739-.22678-4.52877-.5557-5.73702-1.164-4.27587-.46633 1.12016-1.48078 3.41141-2.25433 5.09165-8.20789 17.82871-12.64136 28.50884-13.17806 31.74566-.78203 4.71647.16314 3.67521 4.78287-5.26908zm-333.3387-.7226c11.06244-16.86804 13.25327-20.70359 12.34503-21.61277-1.14359-1.14477-.61204-1.75399-6.60465 7.56958-5.097 7.93015-11.11619 15.96855-13.43803 17.94597-.73848.62894-1.0598 1.88073-.71405 2.78176 1.00578 2.62101 3.72725.45834 8.4117-6.68454zm319.03128.62981c-1.54197-10.30714-3.96882-22.07729-9.84928-47.76872-2.0415-8.91918-6.35114-18.04942-11.17773-23.68068-4.21773-4.92089-16.43753-14.66591-15.57268-12.41887.31252.81199 6.30861 14.76554 13.32465 31.0079 7.01604 16.24236 13.07193 31.04212 13.45753 32.88835.3856 1.84623 2.52636 7.80346 4.75725 13.23829 2.23089 5.43483 4.31012 10.70162 4.62054 11.70397 1.0992 3.54947 1.32777.96583.43972-4.97024zm-165.05401-7.79927c1.58174-8.37741 1.60633-25.15494.0454-30.98089-.57425-2.1433-1.71352-9.85414-2.53174-17.1352-1.19958-10.67481-1.25506-14.71722-.28653-20.87576l1.20113-7.63748 2.72771 6.10998c1.50025 3.36049 5.09459 11.34362 7.98745 17.74029 6.92076 15.30311 8.72948 21.23489 9.64781 31.64042.50413 5.71235 1.5868 10.37853 3.18974 13.74745l2.42656 5.09995-.47536-13.23829c-.76814-21.39234-5.33187-42.01481-12.97982-58.65293-4.50549-9.80169-3.10097-9.18188-15.45753-6.82143l-5.98323 1.14296.62187 10.2716c.34202 5.64939.88147 18.06184 1.19878 27.58322.31732 9.52139 1.02853 21.43585 1.58047 26.47658 1.14206 10.43011 3.83754 22.91242 4.94779 22.91242.41005 0 1.37283-3.3223 2.1395-7.38289zm68.17866-2.86051c0-.59313-.45825-.79521-1.01833-.44906-.56008.34615-1.01833.83145-1.01833 1.07843 0 .24699.45825.44906 1.01833.44906.56008 0 1.01833-.48529 1.01833-1.07843zm-93.69488-3.35842c-.00469-1.20025-.8943-11.60065-1.97691-23.11199-3.29447-35.02997-6.17177-49.32795-10.54276-52.38951-2.23436-1.565-11.42404-2.13829-12.25146-.76429-.25295.42006 1.12682 4.18915 3.06618 8.37575 1.93935 4.18661 3.76482 8.99822 4.05658 10.69246.29177 1.69426 1.6142 6.51733 2.93874 10.71794s3.32653 12.49123 4.44886 18.4236c1.12233 5.93237 2.9343 14.18085 4.02663 18.32994 1.09231 4.14909 2.26107 8.78782 2.59723 10.30827.7298 3.30089 3.65025 2.8334 3.63691-.58217zm153.67944-19.4939c.10496-11.8006-2.55831-29.11521-5.01234-32.58656-.39595-.56008-1.02861-2.30904-1.40591-3.88657-.80425-3.36265-10.96416-13.82391-15.37894-15.83509-1.68024-.76545-3.85692-1.80038-4.83707-2.29988-.98014-.49948-1.78207-.69324-1.78207-.43061 0 .26265 2.44129 5.19271 5.42509 10.95569 8.37736 16.18022 15.23962 35.43224 19.70586 55.28465l1.83277 8.14664.68554-5.09165c.37706-2.80041.72223-9.21589.76707-14.25662zm-292.06499 3.62904c1.17943-5.24926-.20417-7.76784-2.19356-3.99295-.69582 1.32032-1.54021 2.62969-1.87642 2.90974-.33622.28004-2.26129 2.38228-4.27795 4.67166-2.97273 3.37473-3.57751 4.76984-3.19562 7.3718l.47103 3.20933 5.03493-4.85358c3.73167-3.59724 5.29448-6.00864 6.03759-9.316zm345.43317 1.58988c4.70455-5.51598 5.78423-8.25702 5.78805-14.69435.00344-5.78621-.3867-6.99333-3.94937-12.21996-6.06407-8.89631-16.93797-16.97606-31.1792-23.16742-2.24033-.97398-4.97175-2.22585-6.06984-2.78191-1.09808-.55608.65801 1.91714 3.90243 5.49606 3.24443 3.57891 7.93788 9.359 10.42989 12.84463 4.86401 6.80337 12.60609 24.92094 12.62449 29.54307.00617 1.54877.29721 4.54651.64678 6.66163l.63557 3.84569 2.6628-1.68175c1.46453-.92497 3.49332-2.65552 4.5084-3.84569zm-355.1488-6.24067c2.8443-3.47109 3.86934-5.76095 4.2166-9.41955l.4588-4.83365-2.09494 2.54583c-1.15222 1.4002-2.37764 3.46232-2.72315 4.58248-.34552 1.12016-2.22897 3.54189-4.18546 5.38163-2.91425 2.74036-3.33341 3.61467-2.31892 4.83707 1.85274 2.23241 2.54767 1.90896 6.64707-3.09381zm22.85512-1.08883c0-1.37475-.4023-3.29525-.89401-4.2678-2.03131-4.01775-4.19764-9.55657-4.19764-10.73248 0-1.5926-5.93993-15.79211-7.78575-18.61198-.7625-1.16487-1.07498-2.42933-.6944-2.80991.38058-.38058-.74861-.18978-2.50932.42401l-3.20128 1.11597 6.58621 13.05138c3.91791 7.76381 6.58621 14.34201 6.58621 16.23709 0 1.89237.62015 3.42371 1.5275 3.77189.84012.32239 1.52749 1.37725 1.52749 2.34414 0 .9669.29305 2.05103.6512 2.4092 1.15652 1.15651 2.40379-.36458 2.40379-2.93151zm6.8705-14.69186c.4058-5.18672.16931-5.94385-3.1986-10.2405-2.00024-2.55184-5.46045-5.66465-7.68936-6.91737l-4.05257-2.27766 2.08992 5.38986c1.14946 2.96442 3.15934 7.91023 4.46641 10.99068 1.30705 3.08044 2.95701 7.87659 3.66657 10.65808l1.29012 5.05727 1.49466-3.52977c.82207-1.94138 1.69185-6.05015 1.93285-9.13059zm-31.28242-1.72306c3.45827-2.36663 4.01173-3.35975 4.02973-7.23096.01202-2.58532-1.04267-4.48457-4.60573-8.29376-6.25924-6.69164-9.35228-7.90523-14.23842-5.5866-3.21672 1.52643-4.26221 1.5987-7.2898.50392-1.94397-.70296-3.62987-1.12147-3.74641-.93003-.11656.19143-.78766 1.10412-1.49134 2.0282-1.08927 1.43041-.71886 2.20899 2.49226 5.2385 2.07443 1.95711 5.55609 4.14728 7.73704 4.86706 3.68561 1.21635 4.36691 1.10533 9.65792-1.57374 4.21527-2.13439 6.11581-2.61727 7.32341-1.8607 3.90908 2.44903 1.89032 10.36888-3.29486 12.92622-2.49025 1.22819-2.75256 1.59384-1.15628 1.61176 1.13556.01275 3.19768-.75219 4.58248-1.69987zm47.14367-5.69867c-1.02079-1.28154-6.06142-6.09157-11.2014-10.68896-6.26208-5.60102-9.87384-8.1561-10.94705-7.74426-.88089.33802-1.60163.96786-1.60163 1.39962 0 2.06188 22.11027 19.36368 24.7452 19.36368.47348 0 .02568-1.04854-.99512-2.33008zM403.02339 97.01522l-63.40425-63.41033h-180.2589l-46.10721 46.11556-46.10719 46.11556 4.6417 2.25511c4.88415 2.37291 10.14533 2.95355 11.20635 1.23678.34615-.56008 1.52576-1.01833 2.62135-1.01833 1.0956 0 4.39085-1.33861 7.32279-2.97469 6.07446-3.38968 13.01355-5.48192 17.70744-5.33907 3.53567.1076 10.65324 3.45272 12.75768 5.99587 2.1865 2.64233 13.27791 7.41144 17.12638 7.36404 1.96029-.02414 5.39715-.70425 7.63748-1.51136 6.09682-2.19646 8.13316-1.85309 11.4563 1.93175 2.14572 2.44385 3.21531 4.96644 3.72049 8.77468.38995 2.93965.47695 5.57686.19333 5.86048-.69133.69133 14.78519 10.47555 27.39289 17.31774 5.59705 3.03751 10.40866 5.87233 10.69246 6.29959.2838.42728 5.32762 2.62649 11.20848 4.88715 16.49728 6.34172 22.92155 6.85264 65.55234 5.21334 45.90338-1.76513 95.2691-1.54216 114.18289.51575 15.28016 1.66255 27.68939 3.94281 30.94824 5.68689 1.10747.5927 2.84565 1.08423 3.86262 1.09228 1.01696.00805 6.4757 2.23972 12.13053 4.95927 11.04373 5.3112 20.83762 13.33483 24.43543 20.01864l1.94294 3.6095.27084-28.79294.27084-28.79293-63.40424-63.41033zm-251.19192 101.794c2.24733-6.51274 3.95227-27.29727 1.85698-22.63814-2.94556 6.54984-3.99395 9.34346-3.99395 10.64259 0 .77468-.96605 3.62319-2.14677 6.33001-3.88241 8.90047-4.08623 10.39928-1.73403 12.75148 2.51565 2.51565 2.83386 2.14097 6.01777-7.08594zm-47.34851.0197c1.07338-5.34491 2.86928-6.65551 9.11986-6.65551h5.73175l-4.10481-3.75217c-4.37657-4.00058-5.86621-7.62019-4.83196-11.741.54083-2.1548 1.22251-2.5409 4.4383-2.51382 4.75064.04002 7.82637 3.72504 7.82637 9.37677 0 2.10623.32343 3.82952.71871 3.82952.3953 0 2.37847-2.02551 4.40706-4.50113 5.38401-6.57048 10.8689-19.98814 11.63723-28.46812.57655-6.36333.94915-7.2646 4.08598-9.88333 4.61288-3.85101 9.15217-4.84173 10.94569-2.38895 2.52304 3.45048 1.64179 6.31562-2.70848 8.80583-3.47068 1.9867-6.50748 5.25619-4.30875 4.63891.3999-.11227 1.82535.40356 3.16767 1.14629 2.70186 1.495 2.38723 1.78581 6.97898-6.45051 1.26018-2.26042 2.28952-5.72081 2.28742-7.68975-.00349-3.27293-.38904-3.73831-4.49605-5.42711-4.7455-1.95135-7.32127-1.58298-17.71248 2.53309-3.07291 1.21722-3.52623 1.14761-5.09165-.78186-.94512-1.16492-4.23877-3.45288-7.31922-5.08436-5.24818-2.77955-6.33812-2.96631-17.31161-2.96631H96.23218l-9.33308 4.43541c-8.54629 4.06151-9.62666 4.33853-12.81573 3.28603-1.91547-.63216-4.78158-2.50515-6.36913-4.16221-2.20934-2.30605-3.20431-2.74905-4.2413-1.88843-1.90952 1.58477-1.71168 2.95551 1.22327 8.47539 2.94815 5.54468 2.94219 5.58342-2.80057 18.21984-4.69403 10.32878-4.74801 14.11007-.33892 23.7408 2.45343 5.35899 2.54295 5.42881 6.96075 5.42881 3.84418 0 4.64743.37762 5.69529 2.67742.67095 1.47258 1.0882 2.76824.9272 2.87924-.16099.111-1.85108.82335-3.75575 1.58301l-3.46304 1.38119 3.83352 1.3272c3.47376 1.20265 4.1133 1.12798 6.81481-.79567 3.37253-2.40144 3.36914-2.41071-3.57588-9.76792-5.06983-5.37071-4.48446-6.36487 7.00261-11.89284 1.69162-.81407 3.94268-2.43815 5.00236-3.60909 1.84542-2.03916 2.01157-2.05345 3.93861-.33865 2.70091 2.40342 4.78581 7.56558 4.78581 11.84947 0 2.5643-1.11726 4.91887-4.16147 8.77008-2.28881 2.89556-4.00596 5.42017-3.8159 5.61023.30841.30842 13.41515 3.2743 15.38572 3.48159.43407.04567 1.04229-1.17716 1.3516-2.71738zm18.73496-38.86521c-.84012-.47877-2.98357-1.18133-4.76322-1.56123-1.77964-.37989-4.80338-2.16921-6.7194-3.97627-1.91603-1.80705-5.37094-3.90838-7.67758-4.66964-5.86281-1.93491-4.24793-3.47603 2.73545-2.6105 9.7616 1.20986 15.83985 4.69559 19.09348 10.94965 1.5512 2.98168.5344 3.69339-2.66873 1.86799zm-54.29628-4.52293c1.47403-2.44035 3.62909-5.02969 4.78902-5.75407 5.00565-3.12609 19.97569-5.40969 19.97569-3.0472 0 .56008-.6023 1.01833-1.33845 1.01833-.73614 0-6.57881 2.73872-12.9837 6.08603-6.40489 3.34732-11.97766 6.09681-12.38394 6.10998-.40627.01318.46736-1.97271 1.94138-4.41307zm67.44782 39.61426c1.57691-.81545 3.6318-3.09411 4.56644-5.0637 1.83854-3.87445 5.02249-15.76739 6.08538-22.73065.62203-4.07501.51753-4.3279-1.78828-4.3279-2.83854 0-2.94935.22546-4.75511 9.67413-.74926 3.92057-2.04114 8.20176-2.87082 9.51374-.82969 1.31198-4.88112 3.96442-9.00321 5.89432-4.12208 1.92989-7.25498 3.89675-6.962 4.37079.29298.47406 2.67783 1.1836 5.29969 1.57677 3.38443.50752 4.34793.9801 3.32209 1.62941-2.5144 1.59148 2.91284 1.11425 6.10582-.53691z"/></svg>